<svg
        class="svg"
        width="29"
        height="29"
        viewBox="0 0 29 29"
        fill="none"
        xmlns="http://www.w3.org/2000/svg"
>
<path
    d="M27.7083 0.5L27.455 0.5475L19 3.825L9.5 0.5L0.57 3.50833C0.2375 3.61917 0 3.90417 0 4.26833V28.2083C0 28.6517 0.348333 29 0.791667 29L1.045 28.9525L9.5 25.675L19 29L27.93 25.9917C28.2625 25.8808 28.5 25.5958 28.5 25.2317V1.29167C28.5 0.848333 28.1517 0.5 27.7083 0.5ZM11.0833 4.41083L17.4167 6.6275V25.0892L11.0833 22.8725V4.41083ZM3.16667 5.97833L7.91667 4.37917V22.9042L3.16667 24.7408V5.97833ZM25.3333 23.5217L20.5833 25.1208V6.61167L25.3333 4.775V23.5217Z"
    fill="#8447FF"
/>
</svg>